<?xml version="1.0" standalone="no"?>
<!DOCTYPE svg PUBLIC "-//W3C//DTD SVG 20010904//EN"
 "http://www.w3.org/TR/2001/REC-SVG-20010904/DTD/svg10.dtd">
<svg version="1.0" xmlns="http://www.w3.org/2000/svg"
 width="512.000000pt" height="512.000000pt" viewBox="0 0 512.000000 512.000000"
 preserveAspectRatio="xMidYMid meet">

<g transform="translate(0.000000,512.000000) scale(0.100000,-0.100000)"
fill="#000000" stroke="none">
<path d="M2375 5113 c-105 -7 -325 -45 -450 -77 -342 -89 -689 -264 -975 -492
-105 -84 -294 -272 -380 -378 -295 -365 -486 -809 -551 -1286 -17 -124 -17
-496 0 -620 67 -488 257 -930 565 -1310 77 -96 270 -289 366 -366 380 -308
822 -498 1310 -565 124 -17 496 -17 620 0 477 65 921 256 1286 551 106 86 294
275 378 380 168 211 332 500 422 745 87 238 140 516 150 785 27 708 -241 1386
-746 1890 -528 529 -1239 793 -1995 743z m317 -921 c58 -25 124 -91 152 -151
21 -45 21 -57 24 -608 l3 -562 562 -3 c551 -3 563 -3 608 -24 60 -28 125 -93
152 -153 30 -64 30 -178 0 -242 -27 -60 -92 -125 -152 -153 -45 -21 -57 -21
-608 -24 l-562 -3 -3 -572 c-3 -561 -3 -573 -24 -618 -28 -60 -93 -125 -153
-152 -64 -30 -178 -30 -242 0 -60 27 -125 92 -153 152 -21 45 -21 57 -24 618
l-3 572 -572 3 c-561 3 -573 3 -618 24 -60 28 -125 93 -152 153 -30 64 -30
178 0 242 27 60 92 125 152 153 45 21 57 21 619 24 l572 3 0 543 c0 589 1 598
55 677 80 115 238 159 367 101z"/>
</g>
</svg>
