<svg width="99" height="94" viewBox="0 0 99 94" fill="none" xmlns="http://www.w3.org/2000/svg">
<path d="M92.3179 36.9206C92.3179 36.9206 97.0658 36.7592 97.6136 37.4051C98.1615 38.051 100.17 50.5975 97.6136 51.5664C97.6136 53.3426 65.2915 53.0197 65.2915 51.5664C63.2828 50.2745 63.3383 38.2125 65.2915 37.4051C66.9905 36.9206 78.1486 36.9172 78.1486 36.9172L85.3788 36.8719H88.8484L92.3179 36.9206Z" fill="#5C9C6E"/>
<path d="M92.5201 16.0707C92.5201 16.0707 85.4484 8.86242 81.8819 16.8298C72.9479 -1.48617 58.206 16.0707 58.206 16.0707L55.0307 41.2275L54.477 66.2077C54.477 66.2077 44.2376 75.6702 44.2376 68.3434L45.6645 22.0631L48.507 13.7443C55.3037 -6.80327 91.4188 -2.89026 92.5201 16.0707Z" fill="#5C9C6E"/>
<path d="M81.5278 86.9564C80.0352 88.222 80.5452 87.8308 80.0352 88.222C80.0352 88.222 79.478 88.7645 79.2914 88.9453L78.7317 89.4722C78.7317 89.4722 78.5476 89.653 78.3585 89.8338C78.3585 89.8338 78.3039 89.9023 78.172 90.0301C77.9854 90.211 77.4257 90.5726 77.0525 90.7534C74.7673 92.3278 71.951 92.5127 69.2076 93.2032C66.2445 93.949 63.3283 93.7828 60.3905 93.9924C59.8183 94.0333 59.2328 93.8999 58.206 93.806C60.6681 91.8534 62.7212 90.1603 64.8454 88.5555C68.1927 86.0265 72.3857 85.1999 74.438 84.0634C75.744 83.3402 76.7583 81.1704 77.2366 79.9048C77.7232 79.1815 77.6702 76.4905 78.3585 76.2886C80.0377 76.2886 81.7169 76.2886 83.0229 76.2886C84.0369 76.2885 85.0752 76.2886 86.0081 76.2886C87.5007 76.2886 85.4483 81.1704 85.4483 81.1704L83.0229 85.3291L82.4607 86.0523L81.5278 86.9564Z" fill="#5C9C6E"/>
<path d="M72.9479 73.7572C72.1137 73.7405 70.8956 68.5137 73.321 68.9242C75.7465 68.9082 78.6936 68.9234 80.7766 68.9242C83.7501 68.9254 86.7247 68.9754 89.6965 68.9082C91.0626 68.8773 91.6593 69.339 91.5204 70.6792C91.4172 71.675 91.6053 73.7572 90.6724 73.7572C90.6724 73.7572 88.0604 73.7796 82.4632 73.7796C82.4632 73.7796 80.1374 73.8219 75.56 73.7572C75.56 73.7572 74.0673 73.7796 72.9479 73.7572Z" fill="#5C9C6E"/>
<path d="M48.507 34.3409C48.4396 34.4679 48.3718 34.5946 48.304 34.7212C48.3269 34.6234 48.3499 34.5257 48.4394 34.384C48.5059 34.3401 48.507 34.3409 48.507 34.3409Z" fill="black"/>
<path d="M78.7492 36.8896C76.5103 36.9654 73.5251 37.0704 70.913 37.0704C70.9131 32.0077 70.913 27.1258 70.913 22.0631C70.912 21.6197 70.8742 21.1591 70.913 20.6924C71.0996 18.4469 73.1507 17.8306 75.542 18.1436C77.1094 18.3487 78.3879 18.8413 78.7055 20.6901C78.7326 26.2653 78.7409 31.6153 78.7492 36.8896Z" fill="#B28989"/>
<path d="M92.1825 36.8896C89.9436 36.9654 86.9584 37.0704 84.3464 37.0704C84.3464 32.0077 84.3463 27.1258 84.3464 22.0631C84.3453 21.6197 84.3076 21.1591 84.3464 20.6924C84.533 18.4469 86.584 17.8306 88.9753 18.1436C90.5427 18.3487 91.8212 18.8413 92.1388 20.6901C92.1659 26.2653 92.1742 31.6153 92.1825 36.8896Z" fill="#B28989"/>
<path d="M29.1189 29.8532C29.1189 29.8532 33.9678 29.677 34.5273 30.3818C35.0868 31.0866 37.1382 44.776 34.5273 45.8331C34.5273 47.7712 1.51738 47.4188 1.51738 45.8331C-0.534082 44.4236 -0.477327 31.2627 1.51744 30.3818C3.25256 29.8532 14.648 29.8495 14.648 29.8495L22.0321 29.8H25.5755L29.1189 29.8532Z" fill="#5C9C6E"/>
<path d="M30.5982 48.4235C30.5982 48.4235 33.9608 48.0416 35.076 46.7962C36.1912 45.5508 35.1255 59.9768 32.4667 60.8678C32.4667 62.5013 3.94228 62.2043 3.94228 60.8678C1.85322 59.6798 -0.573479 48.262 1.45784 47.5195C4.85091 48.7648 15.8588 48.7648 15.8588 48.7648H26.6801L30.5982 48.4235Z" fill="#5C9C6E"/>
<path d="M94.0841 53.7634C94.0841 53.7634 97.4467 53.3815 98.5619 52.1361C99.6771 50.8907 98.6114 65.3167 95.9526 66.2077C95.9526 67.8412 67.4283 67.5442 67.4283 66.2077C65.3392 65.0197 62.9125 53.6019 64.9438 52.8594C68.3369 54.1048 79.3448 54.1048 79.3448 54.1048H90.1661L94.0841 53.7634Z" fill="#5C9C6E"/>
<path d="M15.6723 29.9449C13.4383 30.0358 10.4598 30.1616 7.85358 30.1616C7.85362 24.0921 7.85353 18.2393 7.85357 12.1697C7.8525 11.6381 7.81486 11.0858 7.85357 10.5263C8.03977 7.83422 10.0862 7.09537 12.4722 7.47057C14.0361 7.71649 15.3118 8.3071 15.6287 10.5236C15.6557 17.2075 15.664 23.6217 15.6723 29.9449Z" fill="#B28989"/>
<path d="M29.1056 29.9449C26.8717 30.0358 23.8932 30.1616 21.287 30.1616C21.287 24.0921 21.2869 18.2393 21.2869 12.1697C21.2859 11.6381 21.2482 11.0858 21.2869 10.5263C21.4731 7.83422 23.5196 7.09537 25.9056 7.47057C27.4695 7.71649 28.7451 8.3071 29.0621 10.5236C29.0891 17.2075 29.0974 23.6217 29.1056 29.9449Z" fill="#B28989"/>
<path d="M54.477 69.7956C53.7286 74.6775 51.7818 78.8199 51.2397 79.9048C52.0178 77.932 49.5719 87.8604 40.6705 92.8416C32.4667 93.4443 29.628 92.0191 23.4033 90.3918C20.6789 89.6795 17.3006 87.2723 15.8508 85.4047C14.5032 83.6688 12.7547 72.329 13.9904 71.9287C16.3236 71.1727 20.9632 71.7173 23.4033 71.0613C21.8261 73.4322 24.0654 77.932 24.0654 77.932C24.0654 77.932 25.9544 81.1338 26.6801 81.8937C27.5281 82.7815 35.2709 84.6382 34.5273 83.3564C36.9582 83.718 38.4316 81.8937 38.4316 81.8937C43.2826 79.9048 43.542 70.8748 44.2376 68.3434C45.9675 64.908 46.352 68.1521 45.6645 62.9681C45.9274 59.4984 46.0237 56.4635 46.267 53.6143C46.4934 56.6845 46.3361 59.603 46.7826 62.4348C46.9359 63.407 48.5987 64.1622 49.5719 65.0165C50.1626 64.0773 51.1012 63.1821 51.2397 62.1856C51.362 61.3058 50.3089 60.3222 50.2746 59.368C50.2026 57.3656 49.9712 55.1614 50.7276 53.4013C51.39 51.8599 53.0374 51.8176 53.7286 53.9648C54.0037 54.8193 54.3223 55.581 54.6941 56.4156C54.6684 59.3939 54.477 67.8067 54.477 68.9242C54.477 69.7956 54.477 69.6148 54.477 69.7956Z" fill="#5C9C6E"/>
<path d="M9.19897 68.616C8.36474 68.5993 7.14666 63.3725 9.57211 63.783C11.9976 63.767 14.9447 63.7822 17.0277 63.783C20.0012 63.7842 22.9758 63.8342 25.9476 63.767C27.3137 63.7361 27.9104 64.1977 27.7715 65.538C27.6683 66.5338 27.8564 68.616 26.9235 68.616C26.9235 68.616 24.3115 68.6384 18.7143 68.6384C18.7143 68.6384 16.3884 68.6807 11.811 68.616C11.811 68.616 10.3184 68.6384 9.19897 68.616Z" fill="#5C9C6E"/>
<path d="M70.6834 60.3755C70.7548 59.8902 69.966 58.8709 70.2714 58.2339C77.4763 58.1659 85.494 58.1503 92.4649 58.2339C92.2784 59.9059 92.0919 59.9059 92.0919 59.9059C91.9054 60.3755 91.9982 60.3709 91.1594 60.3755C85.1611 60.4084 77.3841 60.4157 71.125 60.4164C70.8643 60.4171 70.6834 60.3755 70.6834 60.3755Z" fill="black"/>
<path d="M6.90763 55.0588C6.97899 54.5735 6.19017 53.5543 6.49559 52.9173C13.7005 52.8492 21.7182 52.8336 28.6891 52.9173C28.5026 54.5892 28.3161 54.5892 28.3161 54.5892C28.1296 55.0588 28.2224 55.0542 27.3836 55.0588C21.3853 55.0918 13.6083 55.0991 7.34915 55.0998C7.0885 55.1005 6.90763 55.0588 6.90763 55.0588Z" fill="black"/>
</svg>
